<?xml version="1.0" encoding="UTF-8"?><svg xmlns="http://www.w3.org/2000/svg" viewBox="0 0 93.86 142.1"><defs><style>.m {
  fill: #c29d65;
}

.n {
  stroke: #947a4d;
}

.n, .o, .p, .q, .r, .s {
  stroke-miterlimit: 10;
}

.n, .o, .p, .q, .s {
  stroke-width: .5px;
}

.n, .q, .r {
  fill: none;
}

.t {
  fill: #785635;
}

.o {
  fill: #010101;
}

.o, .p, .q, .r, .s {
  stroke: #1e1e1c;
}

.p {
  fill: #919847;
}

.s {
  fill: #fff;
}

.u {
  opacity: .34;
}

.v {
  fill: #2c4e68;
}

</style></defs><g id="a"></g><g id="b"><g id="c"><g id="d"><g id="e"><g id="f"><g id="g"><g id="h"><path class="m" d="M92.65,89.05c.26,.8,.74,1.31,.71,1.89s.06,1.16-.13,1.8-.45,.51-.58,1.44-.23,2.35-.39,2.89-1.22,1.8-2.35,2.73c-1.14,.97-2.4,1.79-3.76,2.44-1,.45-2.04,.79-3.12,1-2.67,.16-7.32,.32-7.84,.26s-.78,0-.83,1.49,0,2.72-.63,3.62-1.19,1-1.44,2.05c-.06,.22-.1,.45-.09,.67,0,0-.98,1.15-1.04,1.73v.3c0,1.51,.28,7.58,.37,8.02,.12,.48,1.9,2.88,2,3.08,.04,.12,.07,.25,.07,.37,0,.18-.05,.35-.19,.35-.24,0-2.24-1-2.69-1.21s-1.69-1.21-2.06-1.51-1.63-1.48-1.97-1.82-2.3-1.65-2.66-1.93-2.66-1.72-3.27-2.27-2.78-2.24-3.42-2.69-4.72-3.43-5.2-3.76-2.18-1.18-3.21-1.65c-1.39-.66-2.74-1.38-4.05-2.18-1.03-.66-3.9-2.42-4.87-2.99s-3.48-2.21-4.13-2.63-3.84-1.97-4.59-2.53-3.69-3.39-4.03-3.61-1.41-.81-1.51-.86h0c.41-.82,.78-1.67,1.1-2.53,.34-1,.44-3.12,.62-3.52,.23-.77,.37-1.57,.4-2.37v-.1c-.04-.44-.22-2.84-.55-3.71-.22-.6-1.5-2.11-2.4-3.03-.25-.29-.55-.55-.88-.75-.28-.08-2.3-1.96-3.53-3.19l-.15-.16-.15-.15c-.22-.22-.44-.45-.64-.69-.33-.47-1.56-2.4-1.85-3.42-.28-.95-.49-1.93-.61-2.91-.02-.37-.15-1.4-.15-2.36-.02-.46,.04-.92,.15-1.36,.25-.88,.74-1.66,1.41-2.28,.69-.66,2.04-1.1,2.52-1.17,1.07-.04,2.14,0,3.21,.12,.33,.09,.63,.28,2.22,1.41s2.21,2.19,2.97,2.46,1.44,1.05,1.77,1.17c.64,.24,1.3,.38,1.98,.42,.72,0,1.9,0,2.41-.25,.5-.19,.93-.54,1.22-.99,.38-.58,.48-.99,.9-1.79,.45-1.01,.85-2.05,1.18-3.1,.26-.74,.7-2.08,.77-2.91s0-4.51,.22-5.22c0,0,1.06-2.92,1.8-3.8,.66-.89,1.06-1.95,1.15-3.05,0-.05,0-.1,0-.15-.09-.57-1.23-2.98-1.41-3.16-.13-.13-.61-.51-.88-.78-.07-.07-.13-.14-.18-.23,0-.02,0-.05,0-.07,0-.32,.46-1.3,1.02-1.86,.61-.61,4.35-5.18,5.53-6.1s4.89-5.72,6.43-7.2,2.21-1.54,2.59-1.65,2.21-.13,2.81,0,.88,.35,1.45,.31,2.68-.92,3.11-1.14,2.41-1.8,3.16-2.02,1.89-.57,2.21-.57,2.28,.31,2.9,.35c1.03,.14,2.05,.39,3.03,.75,.44,.22,1.89,.57,2.37,.83,.47,.23,.9,.53,1.27,.9,.06,.06,.12,.13,.18,.2,.3,.36,.55,.66,.8,.92,.14,.15,.3,.28,.47,.4,.44,.31,.64,.43,.64,.43-.02,.13,0,.27,.03,.39,.73,2.42,1.59,4.8,2.57,7.14,1.34,3.11,4.02,5.66,4.51,6.55s.24,1.7,.24,2.27-.93,1.49-.99,2.29c0,.85,.04,1.7,.14,2.54,.03,.48-.76,1.35-.83,1.78s-.32,.57,.21,1.44,2.78,3.58,3.31,4.36,.07,1.35,.26,1.99c.42,1.22,.61,2.51,.55,3.79-.04,2.18,0,2.45,.2,3.31,.04,.16,.07,.32,.09,.49v1.04c0,.39,.02,1.2,0,1.47,0,.14,0,.28,0,.42v.29s-.02,.07-.03,.11c-.08,.4-.08,.82,0,1.22,.1,.48,.68,.96,.77,1.22,.03,.08,.05,.12,.07,.13h0c0,.3,.01,.59,.06,.88,.03,.36,.1,.71,.22,1.04,.04,.17,.11,.32,.2,.47,.09,.16,.23,.41,.23,.41-.04,.96,.06,2.18,.06,2.45,0,.32-.35,1-.48,1.25s-.16,.38-.13,1.06c.03,.6,.25,1.19,.61,1.67,.32,.45,.29,.87,.32,1.28s-.1,3.44-.1,3.98,.1,2.48,.13,3.41-.18,1.61,.07,2.42Z"></path><path class="t" d="M93.19,68.43c.03,.13-.13,.55-.32,1.22s-.58,.45-.68,1.43c0,.14-.02,.29-.03,.45,0,0-.15-.25-.23-.41-.09-.14-.16-.3-.2-.47-.12-.34-.2-.69-.22-1.04-.04-.29-.06-.59-.06-.88,.04,.03,.09-.07,.28-.14,.29-.1,.8-.55,1.1-.61s.32,.32,.36,.45Z"></path><path class="t" d="M93.13,62.36c.16,.16-.03,.83,0,.93s-.38,.61-.71,.77c-.46,.3-.88,.67-1.22,1.1-.22,.27-.41,.57-.55,.88v-.29c0-.14,0-.28,0-.42,.02-.28,0-1.09,0-1.47v-1.04c.04,.32,.02,.25,.43,.32,.55,.1,1-.55,1.22-.61s.68-.33,.83-.17Z"></path><path class="v" d="M90.21,133.8c.1,.93,.61,.87,.13,1.96s-.48,.51-1.22,1.12-1.35,.71-2.8,1.31-.96,.71-3.12,1.1-5.68,1.03-6.55,1.16-1.54,.1-2.86,0-3.57,.29-4.66,.39-5.94,.58-6.87,.71c-.93,.13-2.31,0-3.89,0s-8.97-.16-9.76-.12-5.97-.5-7.37-.68-8.47-1.04-8.8-1.33-4.87-1.1-6.06-1.46-8.91-2.85-9.19-3.01-3.74-2.41-3.82-2.58-1.1-1.22-1.17-1.46-.48-.62-.48-1.12c-.05-.42,.05-.84,.28-1.2,.38-.57,1.47-1.68,1.82-2.64s.14-4.07,.35-4.48,.76-3.5,1.01-3.8c.67-.78,1.39-1.53,2.14-2.23,.52-.41,1.79-2.01,2.25-2.55s1.65-2.99,2.21-3.21,1.3-1.06,2.39-1.68,1.71-1.79,2.23-2.66,.72-3.27,.71-4.21-.03-3.37-.33-4.64-.41-2.15-.83-2.72c-.06-.08-.12-.16-.19-.23,.1,.05,1.19,.65,1.51,.86s3.27,3.03,4.02,3.6,3.92,2.11,4.59,2.53,3.18,2.06,4.13,2.63,3.86,2.33,4.87,2.99c1.31,.8,2.67,1.52,4.05,2.18,1.03,.49,2.72,1.33,3.21,1.65s4.57,3.31,5.2,3.75,2.81,2.15,3.42,2.69,2.9,2,3.27,2.27,2.33,1.6,2.66,1.93,1.6,1.51,1.97,1.82,1.6,1.3,2.06,1.51c.45,.21,2.45,1.21,2.69,1.21,.14,0,.19-.17,.19-.35,0-.13-.02-.25-.07-.37-.09-.21-1.87-2.6-2-3.08-.11-.44-.37-6.51-.37-8.02v-.3c.06-.58,1.04-1.73,1.04-1.73,.04,.34,.3,.35,.7,.71,.58,.51,.83,.22,1.9,1.16s1.48,1.12,2.41,2.15,2.15,1.77,2.63,2.31,.96,1.35,1.61,2.18,1.67,1.51,2.09,2.12,.35,.58,.35,1.64,.03,1.44,.06,2.54-.07,1.21,.76,1.86,1.77,.77,2.19,1.12,1.73,1.25,2.21,1.93c.57,.82,.95,1.77,1.1,2.76Z"></path><path class="t" d="M79.64,19.33c1.06,1.24,1.1,3.4,1.06,3.82-.04,.33-.32,.85-.36,1.33,0,0-.2-.13-.64-.43-.17-.12-.32-.25-.47-.4-.25-.25-.5-.55-.8-.92-.06-.07-.12-.14-.18-.2-.37-.36-.8-.67-1.27-.9-.49-.28-1.93-.61-2.37-.83-.98-.35-2-.6-3.03-.75-.61-.04-2.59-.35-2.9-.35s-1.45,.35-2.21,.57-2.72,1.8-3.16,2.02-2.54,1.1-3.11,1.14-.83-.18-1.45-.31-2.41-.13-2.81,0-1.05,.18-2.59,1.65-5.27,6.28-6.45,7.2-4.92,5.49-5.53,6.1c-.55,.55-1.02,1.54-1.02,1.86,0,.02,0,.05,0,.07,.05,.08,.11,.16,.18,.23,.28,.28,.75,.65,.88,.78,.18,.18,1.32,2.59,1.41,3.16,0,.05,0,.1,0,.15-.08,1.1-.46,2.16-1.11,3.06-.75,.88-1.8,3.8-1.8,3.8-.22,.7-.16,4.38-.22,5.22s-.51,2.17-.77,2.91c-.34,1.06-.73,2.09-1.18,3.1-.42,.8-.51,1.22-.9,1.79-.29,.45-.72,.8-1.22,.99-.51,.26-1.69,.25-2.41,.25-.68-.04-1.35-.18-1.98-.42-.33-.12-1.02-.9-1.77-1.17s-1.38-1.32-2.97-2.46-1.89-1.32-2.22-1.41c-1.07-.12-2.14-.16-3.21-.12-.48,.06-1.83,.51-2.52,1.17-.67,.61-1.16,1.4-1.41,2.28-.12,.44-.17,.9-.15,1.36,0,.96,.13,1.99,.15,2.36,.12,.99,.32,1.96,.6,2.91,.28,1.02,1.53,2.94,1.85,3.42,.2,.24,.41,.47,.64,.69l.15,.15,.15,.16c1.23,1.23,3.25,3.11,3.53,3.19,.33,.2,.62,.45,.87,.75,.9,.92,2.17,2.43,2.4,3.03,.33,.87,.51,3.27,.55,3.71v.1c-.04,.8-.17,1.6-.4,2.37-.18,.4-.28,2.52-.62,3.52-.32,.86-.69,1.7-1.1,2.53-.44-.45-.97-.78-1.56-.98-.46-.11-1.63-.76-1.87-1.1s.22-.41-.52-.71c-1.02-.32-2.08-.5-3.15-.53-.35,.06-1.28-.92-1.6-1.71s-.73-1.14-1.74-1.87-2.82-1.96-3.03-2.31-1.41-2.06-2.31-2.5-3.5-1.65-4.32-1.95-1.76-1.71-2.12-2.06-1.03-1.87-1.14-2.39-.52-2.23-.52-2.99-.03-2.77,.28-3.2,.25-.76,1.28-1.3c.72-.33,1.19-1.03,1.22-1.82,.02-.46-.25-.83-.46-1.14s-.62-1.28-.9-1.76c-.34-.85-.55-1.75-.63-2.66,.03-.41-.55-1.19-.79-1.49s-1.03-.95-1.03-1.71-.34-1.27-.34-3.78,.3-6.57,.44-7.17c.14-.6,.35-1.85,.6-2.23,.25-.38,.38-.52,.98-.98s.73-1.9,.79-2.31c0-.98-.1-1.95-.33-2.91-.19-.51-.3-2.06-.41-2.39-.09-.32-.23-.62-.41-.9-.28-.46-.33-3.67-.33-4.24s0-2.69,.06-2.93,.02-.9,.4-1.36-.05-.92,.83-1.41c.88-.49,.52-.49,1.38-1.33,.86-.84,1.36-.71,1.52-1.79s.32-2.85,.41-3.48,.03-1.14,.49-1.38,.79-.9,1.63-1.14,1.01-.49,1.25-.57c.36-.08,.72-.13,1.09-.17,2.57-.69,3.03-.97,5.24-2.34,2.21-1.37,.92-1.49,2.58-3.37s2.57-2.62,3.99-3.31,4-.68,5.31-.86,3.54,.06,4.28-.51,.33-.92,3.09-1.03,4-.06,5.19-.4,1.2-1.08,1.89-1.43,4.17-.17,4.74-.23,.57-.69,1.25-.8,7.56-.2,8.2,0,1.42,1.1,1.86,1.58c.45,.48,.07,1.01,2.31,.93s6.25,.45,6.76,.55,.76,.13,.83,.95c.07,.82,.03,2.02,.38,2.56s1.42,1.33,2.21,1.99c.79,.66,1.93,.92,3.29,1.86s2.17,2.33,2.72,3.31,.79,2.95,2.65,4.98Z"></path><path class="r" d="M25.76,93.55c.07,.07,.13,.15,.19,.23,.41,.57,.52,1.44,.83,2.72s.3,3.72,.33,4.64-.19,3.34-.71,4.21-1.14,2.04-2.23,2.66-1.85,1.47-2.39,1.68-1.74,2.66-2.21,3.21-1.74,2.14-2.25,2.55c-.76,.7-1.47,1.44-2.14,2.23-.25,.3-.79,3.39-1.01,3.8s0,3.53-.35,4.48-1.44,2.06-1.82,2.64c-.22,.36-.32,.78-.28,1.2,0,.5,.41,.88,.48,1.12s1.1,1.29,1.17,1.46,3.53,2.41,3.82,2.58,8.02,2.65,9.21,3,5.73,1.17,6.06,1.46,7.4,1.15,8.8,1.33,6.58,.71,7.37,.68,8.19,.12,9.76,.12,2.96,.13,3.89,0,5.79-.61,6.87-.71,3.34-.48,4.66-.39,1.99,.13,2.86,0,4.41-.77,6.55-1.16,1.67-.48,3.12-1.1,2.06-.71,2.8-1.31,.74-.03,1.22-1.12-.03-1.03-.13-1.96c-.15-.99-.53-1.93-1.1-2.76-.48-.68-1.8-1.57-2.21-1.93s-1.38-.48-2.21-1.12-.71-.74-.74-1.83-.06-1.48-.06-2.54,.06-1.03-.35-1.64-1.45-1.28-2.09-2.12-1.12-1.64-1.61-2.18-1.7-1.28-2.63-2.31-1.35-1.22-2.41-2.15-1.32-.64-1.9-1.16c-.4-.36-.66-.37-.7-.71,0-.23,.03-.45,.09-.67,.26-1.06,.8-1.16,1.44-2.05s.59-2.15,.63-3.62,.3-1.56,.83-1.49,5.17-.1,7.84-.26c1.08-.21,2.12-.54,3.12-1,1.35-.65,2.62-1.47,3.76-2.44,1.12-.93,2.18-2.19,2.35-2.73s.26-1.96,.39-2.89,.38-.8,.58-1.44,.1-1.22,.13-1.8-.45-1.1-.71-1.89-.03-1.48-.07-2.41-.13-2.86-.13-3.41,.13-3.56,.1-3.98,0-.83-.32-1.28c-.36-.48-.57-1.07-.61-1.67-.03-.68,0-.8,.13-1.06s.48-.93,.48-1.25c0-.28-.1-1.49-.06-2.45,0-.16,.01-.31,.03-.45,.1-.98,.48-.76,.68-1.43s.35-1.1,.32-1.22-.07-.51-.36-.45-.8,.51-1.1,.61c-.2,.07-.25,.16-.28,.14"></path><path class="r" d="M91.46,68.72s-.04-.05-.07-.13c-.1-.26-.68-.74-.77-1.22-.08-.4-.08-.82,0-1.22,0-.04,.02-.08,.03-.11,.14-.32,.33-.62,.55-.88,.34-.43,.76-.8,1.22-1.1,.32-.16,.74-.67,.71-.77s.16-.77,0-.93-.61,.1-.83,.16-.67,.71-1.22,.61c-.41-.07-.39,0-.43-.32-.02-.16-.05-.32-.09-.49-.19-.87-.24-1.14-.2-3.31,.06-1.29-.13-2.58-.55-3.79-.19-.64,.26-1.2-.26-1.99s-2.78-3.49-3.31-4.36-.28-1.01-.21-1.44,.85-1.3,.83-1.78c-.1-.84-.15-1.69-.14-2.54,.06-.79,.99-1.72,.99-2.29s.25-1.38-.24-2.27-3.17-3.44-4.51-6.55c-.98-2.33-1.84-4.72-2.57-7.14-.04-.13-.05-.26-.03-.39,.04-.48,.32-1,.36-1.33,.06-.42,0-2.58-1.06-3.82-1.86-2.03-2.11-4.01-2.66-4.99s-1.36-2.35-2.72-3.31-2.53-1.2-3.31-1.86-1.86-1.45-2.21-1.99-.32-1.74-.38-2.56-.31-.85-.83-.95-4.52-.63-6.76-.55-1.86-.45-2.31-.93-1.23-1.38-1.86-1.58-7.51-.11-8.2,0-.68,.74-1.25,.8-4.06-.12-4.74,.23-.69,1.08-1.89,1.43-2.45,.28-5.19,.4-2.34,.47-3.08,1.02-2.97,.35-4.28,.52-3.88,.17-5.31,.86-2.34,1.43-3.99,3.31-.34,2-2.57,3.37-2.68,1.65-5.24,2.34c-.36,.03-.73,.09-1.09,.17-.24,.08-.41,.33-1.25,.57s-1.17,.9-1.63,1.14-.41,.76-.49,1.38c-.08,.62-.25,2.39-.41,3.48s-.66,.96-1.53,1.8-.52,.83-1.38,1.33-.44,.95-.83,1.41-.35,1.1-.41,1.36-.06,2.36-.06,2.93,.06,3.77,.33,4.24c.18,.28,.32,.58,.41,.9,.11,.33,.22,1.87,.41,2.39,.22,.95,.33,1.93,.33,2.9-.06,.41-.19,1.85-.79,2.31s-.73,.6-.98,.98-.46,1.63-.6,2.23-.44,4.69-.44,7.17,.33,3.03,.33,3.78,.79,1.41,1.03,1.71,.83,1.09,.79,1.49c.08,.91,.29,1.81,.63,2.67,.28,.49,.68,1.44,.9,1.76s.49,.68,.46,1.14c-.03,.79-.51,1.49-1.22,1.82-1.03,.55-.98,.87-1.28,1.3s-.28,2.44-.28,3.2,.41,2.48,.52,2.99,.79,2.04,1.14,2.39,1.3,1.76,2.12,2.06,3.42,1.52,4.32,1.95,2.09,2.14,2.31,2.5,2.04,1.58,3.03,2.31,1.41,1.09,1.74,1.87,1.25,1.76,1.62,1.71c1.07,.03,2.13,.2,3.15,.52,.73,.3,.28,.35,.52,.71s1.41,1.01,1.87,1.1c.59,.2,1.13,.54,1.56,.98"></path><path class="r" d="M72.22,111.34s-.98,1.15-1.04,1.73v.3c0,1.51,.28,7.58,.37,8.02,.12,.48,1.9,2.88,2,3.08,.04,.12,.07,.25,.07,.37,0,.18-.05,.35-.19,.35-.24,0-2.24-1-2.69-1.21s-1.69-1.21-2.06-1.51-1.63-1.48-1.97-1.82-2.3-1.65-2.66-1.93-2.66-1.72-3.27-2.27-2.78-2.24-3.42-2.69-4.73-3.43-5.21-3.76-2.18-1.18-3.21-1.65c-1.39-.66-2.74-1.38-4.05-2.18-1.03-.66-3.9-2.42-4.87-2.99s-3.48-2.21-4.13-2.63-3.84-1.97-4.59-2.53-3.69-3.39-4.03-3.61-1.41-.81-1.51-.86"></path><path class="r" d="M25.75,93.53c.41-.82,.78-1.67,1.1-2.53,.34-1,.44-3.12,.62-3.52,.23-.77,.37-1.57,.4-2.37v-.1c-.04-.44-.22-2.84-.55-3.71-.22-.6-1.5-2.11-2.4-3.03-.25-.29-.55-.53-.87-.73-.28-.08-2.3-1.96-3.53-3.19l-.15-.16-.15-.15c-.22-.22-.44-.45-.64-.69-.33-.47-1.56-2.4-1.85-3.42-.28-.95-.49-1.93-.61-2.91-.02-.37-.15-1.4-.15-2.36-.02-.46,.04-.92,.15-1.36,.25-.88,.74-1.66,1.41-2.28,.69-.66,2.04-1.1,2.52-1.17,1.07-.04,2.14,0,3.21,.12,.33,.09,.63,.28,2.22,1.41s2.21,2.19,2.97,2.46,1.44,1.05,1.77,1.17c.64,.24,1.3,.38,1.98,.42,.72,0,1.9,0,2.41-.25,.5-.19,.93-.54,1.22-.99,.38-.58,.48-.99,.9-1.79,.45-1.01,.85-2.05,1.18-3.1,.26-.74,.7-2.08,.77-2.91s0-4.51,.22-5.22c0,0,1.06-2.92,1.8-3.8,.66-.89,1.06-1.95,1.15-3.05,0-.05,0-.1,0-.15-.09-.57-1.23-2.98-1.41-3.16-.13-.13-.61-.51-.88-.78-.07-.07-.13-.14-.18-.23,0-.02,0-.05,0-.07,0-.32,.46-1.3,1.02-1.86,.61-.61,4.35-5.18,5.53-6.1s4.89-5.72,6.43-7.2,2.21-1.54,2.59-1.65,2.21-.13,2.81,0,.88,.35,1.45,.31,2.68-.92,3.11-1.14,2.41-1.8,3.16-2.02,1.89-.57,2.21-.57,2.28,.31,2.9,.35c1.03,.14,2.05,.39,3.03,.75,.44,.22,1.89,.57,2.37,.83,.47,.23,.9,.53,1.27,.9,.06,.06,.12,.13,.18,.2,.3,.36,.55,.66,.8,.92,.14,.15,.3,.28,.47,.4,.44,.31,.64,.43,.64,.43"></path><path class="r" d="M90.65,62.81v1.04c0,.39,.02,1.2,0,1.47,0,.14,0,.28,0,.42v.29"></path><path class="r" d="M91.46,68.72h0c0,.3,.01,.59,.06,.88,.03,.36,.1,.71,.22,1.04,.04,.17,.11,.32,.2,.47,.09,.16,.23,.41,.23,.41"></path></g><g id="i"><path class="q" d="M36.86,68.35s1.52,3.91,2.28,5.51,1.34,3.4,1.88,4.78,1.34,4.2,1.52,4.74,1.12,3.51,1.3,3.95,.51,3.58,.51,4.02-.07,.8,.22,1.16,2,2.14,2.61,2.35,2.92,1.34,3.58,1.59,3.55,1.52,4.74,1.74c1.47,.3,2.92,.69,4.34,1.16,.65,.25,2.5,.72,3.26,.98s2.14,1.34,2.97,1.65,2.43,.51,3.55,.61,3.84,.51,4.34,.61,1.24,.29,1.24,.29"></path><path class="q" d="M78.71,42.41s1.04-1.46,1.39-1.74,2.48-2.72,2.81-2.81c.36-.08,.73-.13,1.1-.15,.28-.02,1.33-.02,1.63,0s.78,.15,.94,.17c.17,.04,.34,.1,.5,.17"></path><path class="q" d="M80.1,44.3c.33-.33,1.22-1.35,1.7-1.7s1.33-1.02,1.63-1.17c.31-.14,.64-.24,.98-.31,.22-.04,.52-.06,.85-.11s.76,.02,1.2,0c.39,0,.78,.02,1.17,.08"></path><path class="q" d="M55.49,50.53c.87-.7,2.9-2.55,3.6-2.97s1.78-1.54,2.45-1.85,2.06-.83,2.3-.91,2.55-.83,3.15-.94,1.61-.31,2.24-.35c1.01-.05,2.02-.05,3.03,0,.35,.06,.69,.16,1.01,.31,.26,.13,.5,.31,.7,.52,.29,.23,.55,.5,.77,.8,.07,.17,.18,.28,.25,.42"></path><path class="q" d="M56.62,52.41c.6-.42,2.41-1.54,3-1.89s1.43-1.05,1.85-1.15,1.16-.87,1.57-.95c.84-.17,1.67-.4,2.48-.66,.72-.24,1.47-.4,2.24-.45,.77-.07,1.79-.09,2.08-.09s2.21-.05,2.54,0"></path><path class="q" d="M77.68,68.57c.96-.9,2.19-1.79,2.89-2.02,.43-.16,.88-.24,1.33-.22,.41,0,1.03-.11,1.55,.19s.73,.22,1.18,.33c.45,.08,.92,.04,1.35-.12,.67-.29,1.3-.67,1.88-1.12,.25-.28,.95-.76,1.35-1.19,.39-.47,.68-1.02,.86-1.61,.14-.43-.11-1.54-.22-1.93s-1.1-1.53-1.38-1.86c-.24-.32-.53-.61-.84-.87-.46-.38-1.15-1.23-1.9-2.1s-1.14-.89-1.95-1.84-.92-2.17-1.19-2.6-1.27-1.19-1.54-1.52-.9-.63-1.1-.84"></path><path class="q" d="M74.34,84.16c1.48-1.4,2.83-2.94,3.4-3.48s1.38-1.46,2.23-2.18,2.24-1.95,2.68-2.29c.26-.21,.56-.36,.88-.44,.29-.12,.6-.2,.91-.23,.3-.03,.61-.03,.91,0,.34,.07,.68,.06,1.01-.02,.3-.07,.57-.24,.75-.5,.22-.26,.47-.49,.76-.68,.22-.09,.46-.15,.7-.16,.21,.03,.47,.13,.73,.16s1.07,.23,1.25,.42c.19,.17,.37,.35,.52,.55,.18,.25-.47,.36-.65,.55s-1.15,.68-1.51,1.01c-.67,.53-1.37,1.02-2.09,1.47-.87,.47-1.77,.89-2.7,1.23-.5,.14-1.69,.25-2.56,.54s-1.84,1.41-2.34,1.69-3.53,1.73-3.78,1.87-.25,.28-.55,.37c-.18,.06-.37,.1-.56,.12Z"></path><path class="q" d="M81.1,84.69c1.04,0,1.8,.07,2.41,0s1.95-.04,2.45-.14,1.51-.65,1.69-.69,.58-.68,.97-.86,.76-.58,1.3-.69,.83-.11,1.19-.43"></path><path class="q" d="M35.92,81.92c-2.33,0-4.22-.04-4.83-.24s-2.19-.68-2.58-.88-2.21-.96-2.21-.96"></path><g id="j"><path class="n" d="M31.85,69.87c-.1,.45-.35,1.48-.28,2.01s-.02,.93,.28,1.43c.31,.45,.66,.87,1.05,1.25,.33,.39,.69,.75,1.06,1.1"></path><path class="n" d="M18.73,65.98c.11-1.1-.07-1.44,.29-1.95s.41-.74,1-1.07,.77-.52,1.33-.63,.52,.11,1.14,0c.45-.1,.92-.04,1.33,.18,.41,.18,.92,.81,1.22,.96s.59,.25,.77,.66"></path></g><g id="k" class="u"><path class="n" d="M24.78,70.78c.55-.66,1.07-1.65,1.55-2.03,.4-.34,.83-.64,1.29-.88,.41-.18,.52-.37,.88-.41"></path><path class="n" d="M20.46,66.53c.33,.11,.59-.04,1.03,0"></path><path class="n" d="M41.19,66.52s1.17,2.71,1.81,3.64c.64,.93,2.25,4.72,2.94,5.5s3.97,4.58,4.8,5.2,3.14,2.44,4.07,2.78,2.21,.69,3.09,.93,2.16,.79,2.94,.98,1.96,.98,2.3,1.18,1.18,1.42,1.71,1.76"></path><path class="n" d="M70.27,84.71c.25-.77,.74-3.61,.98-4.05s2.91-2.76,3.96-3.34,4.13-3.38,4.38-3.58,.87-1.69,1.51-2.22"></path><path class="n" d="M71.3,88.51c.93-.1,1.87-.1,2.8,0,.34,.1,3.19,.49,3.92,.64s3.19,1.18,3.63,1.38,2.01,1.13,2.45,1.18"></path><path class="n" d="M82.73,87.09c.78,.82,1.62,1.59,2.5,2.3,.64,.55,.93,.42,1.27,.68"></path><path class="n" d="M90.17,89.1v-2.01c0-.24,.1-1.52,0-1.89"></path></g></g><g id="l"><path class="s" d="M68.03,52.15c-.32-.09-.67-.09-.99,0-.3,.07-.79,.17-1.22,.28l.06,.28c.05,.28,.11,.46-.11,1.13s-.24,.63-.69,1-1.19,.43-1.51,.45-.65,0-.93,0-1.16-.48-1.28-.55c0,0-.02,0-.03,0l-.55,.41c-.58,.43-1.14,1.3-2.08,2.24-.05,.04-.05,.11,0,.16,.02,.02,.05,.04,.09,.04h3.48c.46,0,2.21-.29,2.6-.55s1.02-.99,1.35-1.32c.56-.6,1.05-1.25,1.48-1.95,.23-.46,.56-1.55,.33-1.61Z"></path><path class="p" d="M65.88,52.71l-.06-.28c-.22,.06-.42,.11-.57,.15-.51,.19-1.01,.4-1.49,.65,.2,.07,.3,.28,.23,.48s-.28,.3-.48,.23c-.15-.05-.25-.2-.25-.36,0-.04,0-.07,.02-.11-.18,.09-.34,.18-.47,.26-.44,.25-.95,.62-1.44,.97-.01,.01-.02,.03,0,.05h0c.2,.11,1.01,.54,1.26,.54s.61,.02,.93,0,1.06-.08,1.51-.45,.46-.33,.69-1,.18-.85,.13-1.13Z"></path><path class="o" d="M63.65,53.96c.21,0,.38-.17,.37-.38,0-.16-.1-.3-.25-.35-.17,.08-.33,.17-.48,.25-.01,.04-.02,.07-.02,.11,0,.21,.17,.38,.38,.38"></path><path class="p" d="M80.81,47.19c.26,.21,.58,.32,.91,.32,.37,.06,.75,.03,1.1-.1,.45-.18,.7-.3,.79-.57,.07-.27,.11-.55,.12-.83,.01-.17,0-.34-.05-.5-.33,0-.65,.02-.97,.02-.71,.08-1.4,.25-2.05,.52-.17,.06-.36,.15-.55,.25,.2,.32,.43,.63,.7,.9Z"></path><path class="o" d="M82.35,45.89c.02,.16-.1,.3-.26,.32-.16,.02-.3-.1-.32-.26,0-.02,0-.04,0-.06,0-.16,.13-.2,.29-.23,.13-.03,.25,.05,.28,.17,0,.02,0,.04,0,.06Z"></path><path class="s" d="M85.6,46.21c-.38-.35-.85-.58-1.35-.67-.2-.02-.38-.02-.57-.02,.04,.16,.06,.33,.05,.5,0,.28-.05,.56-.12,.83-.09,.28-.33,.39-.79,.57-.35,.13-.73,.17-1.1,.1-.33,0-.65-.11-.91-.32-.27-.27-.51-.57-.71-.89-.51,.23-.98,.53-1.39,.9,0,0,.35,.9,.6,1.08,.43,.3,.89,.55,1.36,.76,.39,.06,.78,.08,1.17,.06,.2,0-.55,.14,.71-.11s1.24-.74,1.54-.9c.43-.31,.85-.65,1.24-1.01,.16-.14,.37-.76,.26-.88Z"></path></g></g></g></g></g></g></g></svg>