<?xml version="1.0" encoding="UTF-8"?><svg xmlns="http://www.w3.org/2000/svg" viewBox="0 0 314.17 58.14"><defs><style>.g{fill:#1d1d1b;}</style></defs><g id="a"/><g id="b"><g id="c"><g id="d"><g id="e"><g id="f"><path class="g" d="M17.01,1.16c20.07,0,30.31,9.33,30.31,28.08,0,17.59-11.15,27.83-31.71,27.83H0V1.16H17.01Zm-2.15,54.42c16.6,0,24.36-10.73,24.36-26.34C39.23,12.22,30.89,2.64,15.03,2.64H7.1V55.58h7.76Z"/><path class="g" d="M80.69,57.06h-24.77V1.16h23.21v1.49h-16.1V27.91h12.96v1.49h-12.96v26.18h17.67v1.49Z"/><path class="g" d="M115.04,41.04c0,10.24-5.12,16.02-14.29,16.02h-13.63V1.16h12.88c8.51,0,12.88,4.38,12.88,12.97,0,6.61-3.3,11.64-10.41,13.05,8.01,.83,12.55,5.62,12.55,13.87Zm-20.81-14.37h3.47c4.95,0,7.93-4.63,7.93-12.72,0-7.1-2.15-11.31-7.52-11.31h-3.88V26.67Zm13.29,14.78c0-8.34-3.3-13.3-9.33-13.3h-3.96v27.42h4.71c5.53,0,8.59-5.37,8.59-14.12Z"/><path class="g" d="M152.13,57.06h-7.6l-4.13-18.66c-1.57-6.28-3.96-9.08-7.43-9.08h-2.48v27.75h-7.1V1.16h11.81c10.08,0,14.29,5.95,14.29,13.21,0,8.84-5.62,13.46-12.55,14.29,5.2,.91,8.92,4.05,10.57,10.49l4.62,17.92Zm-21.64-29.23h3.3c4.79,0,8.01-3.88,8.01-12.88,0-7.02-1.57-12.3-7.93-12.3h-3.39V27.83Z"/><path class="g" d="M174.34,37.99h-13.13l-4.29,19.08h-1.73l11.81-52.19-.83-3.72h7.35l12.39,55.91h-7.35l-4.21-19.08Zm-.33-1.49l-6.19-27.91-6.28,27.91h12.47Z"/><path class="g" d="M220.51,1.16V57.06h-7.35l-18.33-47.07V57.06h-1.65V6.36l-2.06-5.2h7.52l20.23,51.53V1.16h1.65Z"/><path class="g" d="M258.5,58.14c-15.28,0-29.48-8.92-29.48-29.23,0-18.99,14.62-28.9,30.89-28.9,5.37,0,11.23,1.16,15.94,3.8l-.58,.91c-4.95-2.48-10.49-3.14-14.78-3.14-14.78,0-23.37,9.83-23.37,27.5s9.41,27.42,21.97,27.42c7.68,0,13.38-2.15,18.25-5.78l.74,.83c-5.12,3.88-11.4,6.61-19.57,6.61Z"/><path class="g" d="M291.21,28.82v28.24h-7.1V1.16h7.1V27.33h15.86V1.16h7.1V57.06h-7.1V28.82h-15.86Z"/></g></g></g></g></g></svg>